<?xml version="1.0" encoding="utf-8"?>
<!-- Generator: Adobe Illustrator 20.1.0, SVG Export Plug-In . SVG Version: 6.00 Build 0)  -->
<svg version="1.1" id="Layer_1" xmlns="http://www.w3.org/2000/svg" xmlns:xlink="http://www.w3.org/1999/xlink" x="0px" y="0px"
	 viewBox="0 0 220 200" style="enable-background:new 0 0 220 200;" xml:space="preserve">
<style type="text/css">
	.st0{clip-path:url(#SVGID_2_);}
	.st1{clip-path:url(#SVGID_4_);fill:#3B9BCD;}
	.st2{clip-path:url(#SVGID_6_);}
	.st3{clip-path:url(#SVGID_8_);fill:#4A4A4A;}
	.st4{clip-path:url(#SVGID_10_);}
	.st5{fill:#FFFFFF;}
</style>
<g>
	<defs>
		<polygon id="SVGID_1_" points="220,0 220,200 0,200 		"/>
	</defs>
	<clipPath id="SVGID_2_">
		<use xlink:href="#SVGID_1_"  style="overflow:visible;"/>
	</clipPath>
	<g class="st0">
		<defs>
			<rect id="SVGID_3_" width="220" height="200"/>
		</defs>
		<clipPath id="SVGID_4_">
			<use xlink:href="#SVGID_3_"  style="overflow:visible;"/>
		</clipPath>
		<rect x="-5" y="-5" class="st1" width="230" height="210"/>
	</g>
</g>
<g>
	<defs>
		<circle id="SVGID_5_" cx="110" cy="100" r="60"/>
	</defs>
	<clipPath id="SVGID_6_">
		<use xlink:href="#SVGID_5_"  style="overflow:visible;"/>
	</clipPath>
	<g class="st2">
		<defs>
			<rect id="SVGID_7_" width="220" height="200"/>
		</defs>
		<clipPath id="SVGID_8_">
			<use xlink:href="#SVGID_7_"  style="overflow:visible;"/>
		</clipPath>
		<rect x="45" y="35" class="st3" width="130" height="130"/>
	</g>
</g>
<g>
	<defs>
		<rect id="SVGID_9_" width="220" height="200"/>
	</defs>
	<clipPath id="SVGID_10_">
		<use xlink:href="#SVGID_9_"  style="overflow:visible;"/>
	</clipPath>
	<g class="st4">
		<path class="st5" d="M75,112h-3.8V89.6h5.9l6.8,14l6.8-14h5.9V112h-3.8V94.5L84.9,110h-2.1L75,94.5V112z"/>
		<path class="st5" d="M116.4,109.7c-1.7,1.7-3.8,2.5-6.4,2.5s-4.7-0.8-6.4-2.5c-1.7-1.7-2.6-3.8-2.6-6.2s0.9-4.5,2.6-6.2
			c1.7-1.7,3.8-2.5,6.4-2.5s4.7,0.8,6.4,2.5c1.7,1.7,2.6,3.8,2.6,6.2S118.1,108,116.4,109.7z M106.1,107.5c1,1,2.3,1.6,3.9,1.6
			c1.6,0,2.8-0.5,3.9-1.6c1-1,1.5-2.4,1.5-4s-0.5-3-1.5-4c-1-1-2.3-1.6-3.9-1.6c-1.6,0-2.8,0.5-3.9,1.6c-1,1-1.5,2.4-1.5,4
			S105.1,106.5,106.1,107.5z"/>
		<path class="st5" d="M131.9,98.3c-1.8,0-3.1,0.6-4,1.7c-0.9,1.2-1.3,2.7-1.3,4.6v7.3H123V95h3.6v3.4c0.6-1.1,1.4-1.9,2.4-2.6
			s2-1,3.2-1.1l0,3.6C132.1,98.3,132,98.3,131.9,98.3z"/>
		<path class="st5" d="M151.6,105.1h-13.3c0.1,1.2,0.7,2.2,1.7,3c1,0.8,2.2,1.1,3.6,1.1c2.1,0,3.8-0.7,4.9-2l2,2.2
			c-1.8,1.9-4.2,2.8-7.2,2.8c-2.4,0-4.4-0.8-6.1-2.4c-1.7-1.6-2.5-3.7-2.5-6.4c0-2.7,0.9-4.8,2.6-6.4c1.7-1.6,3.7-2.4,6-2.4
			s4.3,0.7,5.9,2.1s2.4,3.3,2.4,5.8V105.1z M138.2,102.2h9.8c0-1.4-0.4-2.5-1.3-3.3c-0.9-0.8-2-1.2-3.3-1.2c-1.3,0-2.5,0.4-3.5,1.2
			C138.7,99.8,138.2,100.9,138.2,102.2z"/>
	</g>
</g>
</svg>
