<?xml version="1.0" encoding="utf-8"?>
<!-- Generator: Adobe Illustrator 20.1.0, SVG Export Plug-In . SVG Version: 6.00 Build 0)  -->
<svg version="1.1" id="Layer_1" xmlns="http://www.w3.org/2000/svg" xmlns:xlink="http://www.w3.org/1999/xlink" x="0px" y="0px"
	 viewBox="0 0 220 200" style="enable-background:new 0 0 220 200;" xml:space="preserve">
<style type="text/css">
	.st0{clip-path:url(#SVGID_2_);}
	.st1{clip-path:url(#SVGID_4_);fill:#3B9BCD;}
	.st2{clip-path:url(#SVGID_6_);}
	.st3{clip-path:url(#SVGID_8_);fill:#4A4A4A;}
	.st4{clip-path:url(#SVGID_10_);}
	.st5{fill:#FFFFFF;}
</style>
<g>
	<defs>
		<polygon id="SVGID_1_" points="-20,0 -20,200 -240,200 		"/>
	</defs>
	<clipPath id="SVGID_2_">
		<use xlink:href="#SVGID_1_"  style="overflow:visible;"/>
	</clipPath>
	<g class="st0">
		<defs>
			<rect id="SVGID_3_" x="-240" width="220" height="200"/>
		</defs>
		<clipPath id="SVGID_4_">
			<use xlink:href="#SVGID_3_"  style="overflow:visible;"/>
		</clipPath>
		<rect x="-245" y="-5" class="st1" width="230" height="210"/>
	</g>
</g>
<g>
	<defs>
		<circle id="SVGID_5_" cx="-130" cy="100" r="60"/>
	</defs>
	<clipPath id="SVGID_6_">
		<use xlink:href="#SVGID_5_"  style="overflow:visible;"/>
	</clipPath>
	<g class="st2">
		<defs>
			<rect id="SVGID_7_" x="-240" width="220" height="200"/>
		</defs>
		<clipPath id="SVGID_8_">
			<use xlink:href="#SVGID_7_"  style="overflow:visible;"/>
		</clipPath>
		<rect x="-195" y="35" class="st3" width="130" height="130"/>
	</g>
</g>
<g>
	<defs>
		<rect id="SVGID_9_" x="-240" width="220" height="200"/>
	</defs>
	<clipPath id="SVGID_10_">
		<use xlink:href="#SVGID_9_"  style="overflow:visible;"/>
	</clipPath>
	<g class="st4">
		<path class="st5" d="M-165,112h-3.8V89.6h5.9l6.8,14l6.8-14h5.9V112h-3.8V94.5l-7.8,15.5h-2.1l-7.8-15.5V112z"/>
		<path class="st5" d="M-123.6,109.7c-1.7,1.7-3.8,2.5-6.4,2.5s-4.7-0.8-6.4-2.5c-1.7-1.7-2.6-3.8-2.6-6.2s0.9-4.5,2.6-6.2
			c1.7-1.7,3.8-2.5,6.4-2.5s4.7,0.8,6.4,2.5c1.7,1.7,2.6,3.8,2.6,6.2S-121.9,108-123.6,109.7z M-133.9,107.5c1,1,2.3,1.6,3.9,1.6
			c1.6,0,2.8-0.5,3.9-1.6c1-1,1.5-2.4,1.5-4s-0.5-3-1.5-4c-1-1-2.3-1.6-3.9-1.6c-1.6,0-2.8,0.5-3.9,1.6c-1,1-1.5,2.4-1.5,4
			S-134.9,106.5-133.9,107.5z"/>
		<path class="st5" d="M-108.1,98.3c-1.8,0-3.1,0.6-4,1.7c-0.9,1.2-1.3,2.7-1.3,4.6v7.3h-3.6V95h3.6v3.4c0.6-1.1,1.4-1.9,2.4-2.6
			s2-1,3.2-1.1l0,3.6C-107.9,98.3-108,98.3-108.1,98.3z"/>
		<path class="st5" d="M-88.4,105.1h-13.3c0.1,1.2,0.7,2.2,1.7,3c1,0.8,2.2,1.1,3.6,1.1c2.1,0,3.8-0.7,4.9-2l2,2.2
			c-1.8,1.9-4.2,2.8-7.2,2.8c-2.4,0-4.4-0.8-6.1-2.4c-1.7-1.6-2.5-3.7-2.5-6.4c0-2.7,0.9-4.8,2.6-6.4c1.7-1.6,3.7-2.4,6-2.4
			s4.3,0.7,5.9,2.1s2.4,3.3,2.4,5.8V105.1z M-101.8,102.2h9.8c0-1.4-0.4-2.5-1.3-3.3c-0.9-0.8-2-1.2-3.3-1.2c-1.3,0-2.5,0.4-3.5,1.2
			C-101.3,99.8-101.8,100.9-101.8,102.2z"/>
	</g>
</g>
<g>
	<path d="M171.8,103.2c0,14.2-5.1,26.3-15.3,36.2s-22.5,14.9-36.7,14.9s-26.5-5-36.7-14.9s-15.3-22-15.3-36.2s5.1-26.3,15.4-36.3
		c10.2-9.9,22.4-14.8,36.6-14.8s26.5,4.9,36.6,14.8C166.7,76.9,171.8,89,171.8,103.2z M168.4,103.6v-1.9c-9.2-1-13.9-1.5-13.9-1.5
		c-0.2,0-2.6,0.2-7.1,0.7l2.7,5.1l-6.9,2.5l-3.9-8.8l-1.2,0.7c2.2,4.1,3.4,8,3.6,11.8c-2.3,2.7-4.6,5.5-6.9,8.3
		c0,6-0.6,11.5-1.9,16.4l-6.9,5.9l-4.9-3.2c-0.4-6.9-1.6-13.8-3.4-20.8l-4.2-5.9l-9.3-2.2l-2.4-5.6l1.6-8.1
		c2.7-0.8,6.6-2.2,11.6-4.3c1.2,0.8,2.7,1.4,4.5,1.7c1.6,0.2,3.1,0.5,4.7,0.7c0,0,2.3,0.6,6.7,1.9c2.6,0.7,4.9,1.1,6.9,1.2l2.2-5.4
		h-2.7l-1.6-8.2l-6.7-0.3l0.4,2.7l3.4,4.3l-2.7-1.3l0.6,2l-4.7,1.1l1.8-1.3l-1.3-3.8l-3.2-2.2l-2.5,2.2l-3.6-0.6l-2.2,4l-4.1-2
		l3.2-3.8l4.7-1.3l2-2.9l7-3.2l1.6-1.8l1.6-6.5l-4.2,2.1l1.9,1.1l-3,2.8l-1.1-3l-1.5,2.4l-4.5-3.9l9.6-8.4h7.9l0.9-4.7
		c-5.4-2-10.9-3-16.7-3c-6.4,0-11.7,0.9-15.8,2.6c1,0.7,1.4,1.6,1.4,2.5c0,0.4-0.4,0.7-1.3,1c-0.6,0.1-1.2,0.2-1.8,0.3
		c-1.7,0.5-3.4,1.5-5.1,2.8c-1.7,1.3-3.3,3.7-4.8,7.2c-1.2,2.7-2.4,4.1-3.8,4.1c-0.9,0-1.6-0.7-2.3-2.2c-0.7-1.4-1-2.2-1-2.2
		c-1.3,0-2.5,0.3-3.5,1c-2.9,1.9-5.6,6.1-8.1,12.6c-2.6,6.7-3.9,13-3.9,19.1c0,13.4,4.8,24.7,14.3,34c9.5,9.2,21,13.8,34.5,13.8
		c13.5,0,25-4.7,34.7-14.1C163.5,128.4,168.4,117,168.4,103.6z M111.2,69.9l-1.8,1.3l-2.9,0.4l1.1-3.8h2.9L111.2,69.9z M115.5,77.5
		l-1.6,1.8l-0.7-2l1.1-1.8L115.5,77.5z M121.7,77.3l-2.4,2.5l-2.2-0.2l2-2.5l-1.3-0.5l-1.4-2.6l0.8-2L121.7,77.3z M124.5,90.9
		l-0.2,2.2l-2-2.2H124.5z"/>
</g>
</svg>
